<mxfile host="drawio-plugin" modified="2024-02-11T12:43:57.956Z" agent="5.0 (Windows NT 10.0; Win64; x64) AppleWebKit/537.36 (KHTML, like Gecko) Chrome/119.0.0.0 Safari/537.36" etag="xk7-v82TX3fFTaYG_sqb" version="20.5.3" type="embed"><diagram id="C097ilyVGQSY1L9TXrsn" name="Page-1"><mxGraphModel dx="1422" dy="1825" grid="1" gridSize="10" guides="1" tooltips="1" connect="1" arrows="1" fold="1" page="1" pageScale="1" pageWidth="850" pageHeight="1100" math="0" shadow="0"><root><mxCell id="0"/><mxCell id="1" parent="0"/><mxCell id="2" value="Sockets" style="rounded=0;whiteSpace=wrap;html=1;fillColor=#6a00ff;fontColor=#ffffff;strokeColor=#3700CC;" parent="1" vertex="1"><mxGeometry x="720" y="350" width="120" height="40" as="geometry"/></mxCell><mxCell id="3" value="FFTW" style="rounded=0;whiteSpace=wrap;html=1;fillColor=#a20025;strokeColor=#6F0000;fontColor=#ffffff;" parent="1" vertex="1"><mxGeometry x="200" y="400" width="120" height="40" as="geometry"/></mxCell><mxCell id="4" value="CUFFT" style="rounded=0;whiteSpace=wrap;html=1;fillColor=#008a00;fontColor=#ffffff;strokeColor=#005700;" parent="1" vertex="1"><mxGeometry x="200" y="480" width="120" height="40" as="geometry"/></mxCell><mxCell id="6" value="Global" style="rounded=0;whiteSpace=wrap;html=1;fillColor=#0050ef;fontColor=#ffffff;strokeColor=#001DBC;" parent="1" vertex="1"><mxGeometry x="400" y="80" width="120" height="40" as="geometry"/></mxCell><mxCell id="7" value="Main &amp;amp; Driver code" style="rounded=0;whiteSpace=wrap;html=1;" parent="1" vertex="1"><mxGeometry x="280" y="160" width="120" height="40" as="geometry"/></mxCell><mxCell id="8" value="System_CPU" style="rounded=0;whiteSpace=wrap;html=1;fillColor=#f8cecc;gradientColor=#ea6b66;strokeColor=#b85450;" parent="1" vertex="1"><mxGeometry x="720" y="280" width="120" height="40" as="geometry"/></mxCell><mxCell id="9" value="System_GPU" style="rounded=0;whiteSpace=wrap;html=1;fillColor=#e6d0de;gradientColor=#d5739d;strokeColor=#996185;" parent="1" vertex="1"><mxGeometry x="720" y="200" width="120" height="40" as="geometry"/></mxCell><mxCell id="15" value="namespace_System_cpu" style="rounded=1;whiteSpace=wrap;html=1;labelBorderColor=none;fillColor=none;" parent="1" vertex="1"><mxGeometry x="520" y="200" width="160" height="40" as="geometry"/></mxCell><mxCell id="16" value="" style="endArrow=classic;startArrow=classic;html=1;rounded=1;entryX=1;entryY=0.5;entryDx=0;entryDy=0;exitX=0;exitY=0.5;exitDx=0;exitDy=0;" parent="1" source="9" target="15" edge="1"><mxGeometry width="50" height="50" relative="1" as="geometry"><mxPoint x="270" y="430" as="sourcePoint"/><mxPoint x="320" y="380" as="targetPoint"/></mxGeometry></mxCell><mxCell id="17" value="" style="endArrow=classic;startArrow=classic;html=1;rounded=1;entryX=1;entryY=0.5;entryDx=0;entryDy=0;exitX=0;exitY=0.5;exitDx=0;exitDy=0;" parent="1" source="8" target="93" edge="1"><mxGeometry width="50" height="50" relative="1" as="geometry"><mxPoint x="270" y="430" as="sourcePoint"/><mxPoint x="320" y="380" as="targetPoint"/></mxGeometry></mxCell><mxCell id="18" value="namespace_Network" style="rounded=1;whiteSpace=wrap;html=1;labelBorderColor=none;fillColor=none;" parent="1" vertex="1"><mxGeometry x="520" y="360" width="160" height="40" as="geometry"/></mxCell><mxCell id="19" value="" style="endArrow=classic;startArrow=classic;html=1;rounded=1;entryX=1;entryY=0.25;entryDx=0;entryDy=0;exitX=0;exitY=0.5;exitDx=0;exitDy=0;" parent="1" source="2" target="18" edge="1"><mxGeometry width="50" height="50" relative="1" as="geometry"><mxPoint x="720" y="350" as="sourcePoint"/><mxPoint x="770" y="300" as="targetPoint"/></mxGeometry></mxCell><mxCell id="20" value="namespace_Testing" style="rounded=1;whiteSpace=wrap;html=1;labelBorderColor=none;fillColor=none;" parent="1" vertex="1"><mxGeometry x="40" y="280" width="160" height="40" as="geometry"/></mxCell><mxCell id="21" value="" style="endArrow=classic;startArrow=classic;html=1;rounded=0;exitX=1;exitY=0.5;exitDx=0;exitDy=0;entryX=0;entryY=0.5;entryDx=0;entryDy=0;" parent="1" source="20" target="5" edge="1"><mxGeometry width="50" height="50" relative="1" as="geometry"><mxPoint x="610" y="420" as="sourcePoint"/><mxPoint x="660" y="370" as="targetPoint"/></mxGeometry></mxCell><mxCell id="22" value="namespace_Computing" style="rounded=1;whiteSpace=wrap;html=1;labelBorderColor=none;fillColor=none;" parent="1" vertex="1"><mxGeometry x="380" y="440" width="150" height="40" as="geometry"/></mxCell><mxCell id="23" value="" style="endArrow=classic;startArrow=classic;html=1;rounded=0;entryX=0;entryY=0.5;entryDx=0;entryDy=0;exitX=1;exitY=0.5;exitDx=0;exitDy=0;" parent="1" source="3" target="22" edge="1"><mxGeometry width="50" height="50" relative="1" as="geometry"><mxPoint x="530" y="420" as="sourcePoint"/><mxPoint x="580" y="370" as="targetPoint"/></mxGeometry></mxCell><mxCell id="24" value="" style="endArrow=classic;startArrow=classic;html=1;rounded=0;entryX=0;entryY=0.5;entryDx=0;entryDy=0;exitX=1;exitY=0.5;exitDx=0;exitDy=0;" parent="1" source="4" target="22" edge="1"><mxGeometry width="50" height="50" relative="1" as="geometry"><mxPoint x="530" y="420" as="sourcePoint"/><mxPoint x="580" y="370" as="targetPoint"/></mxGeometry></mxCell><mxCell id="38" value="" style="edgeStyle=elbowEdgeStyle;elbow=vertical;endArrow=classic;html=1;rounded=1;exitX=0;exitY=0.5;exitDx=0;exitDy=0;entryX=0.5;entryY=0;entryDx=0;entryDy=0;" parent="1" source="7" target="20" edge="1"><mxGeometry width="50" height="50" relative="1" as="geometry"><mxPoint x="550" y="500" as="sourcePoint"/><mxPoint x="140" y="380" as="targetPoint"/><Array as="points"><mxPoint x="320" y="180"/><mxPoint x="430" y="290"/></Array></mxGeometry></mxCell><mxCell id="5" value="Testing" style="rounded=0;whiteSpace=wrap;html=1;fillColor=#d80073;fontColor=#ffffff;strokeColor=#A50040;" parent="1" vertex="1"><mxGeometry x="275" y="280" width="120" height="40" as="geometry"/></mxCell><mxCell id="42" value="" style="endArrow=classic;startArrow=classic;html=1;rounded=0;exitX=1;exitY=0.5;exitDx=0;exitDy=0;entryX=0;entryY=0.5;entryDx=0;entryDy=0;" parent="1" source="5" target="15" edge="1"><mxGeometry width="50" height="50" relative="1" as="geometry"><mxPoint x="530" y="420" as="sourcePoint"/><mxPoint x="580" y="370" as="targetPoint"/></mxGeometry></mxCell><mxCell id="43" value="" style="endArrow=classic;startArrow=classic;html=1;rounded=0;exitX=1;exitY=0.5;exitDx=0;exitDy=0;entryX=0;entryY=0.5;entryDx=0;entryDy=0;" parent="1" source="5" target="18" edge="1"><mxGeometry width="50" height="50" relative="1" as="geometry"><mxPoint x="530" y="420" as="sourcePoint"/><mxPoint x="580" y="370" as="targetPoint"/></mxGeometry></mxCell><mxCell id="45" value="" style="edgeStyle=elbowEdgeStyle;elbow=vertical;endArrow=classic;html=1;rounded=1;entryX=0.25;entryY=0;entryDx=0;entryDy=0;exitX=0.5;exitY=1;exitDx=0;exitDy=0;" parent="1" source="5" target="22" edge="1"><mxGeometry width="50" height="50" relative="1" as="geometry"><mxPoint x="530" y="420" as="sourcePoint"/><mxPoint x="580" y="370" as="targetPoint"/></mxGeometry></mxCell><mxCell id="46" value="deviceDetails (CUDA)" style="swimlane;fontStyle=0;childLayout=stackLayout;horizontal=1;startSize=30;horizontalStack=0;resizeParent=1;resizeParentMax=0;resizeLast=0;collapsible=1;marginBottom=0;whiteSpace=wrap;html=1;labelBorderColor=none;fillColor=none;" parent="1" vertex="1"><mxGeometry x="910" y="200" width="140" height="210" as="geometry"/></mxCell><mxCell id="47" value="ndev" style="text;strokeColor=none;fillColor=none;align=left;verticalAlign=middle;spacingLeft=4;spacingRight=4;overflow=hidden;points=[[0,0.5],[1,0.5]];portConstraint=eastwest;rotatable=0;whiteSpace=wrap;html=1;labelBorderColor=none;" parent="46" vertex="1"><mxGeometry y="30" width="140" height="30" as="geometry"/></mxCell><mxCell id="48" value="*dev_name" style="text;strokeColor=none;fillColor=none;align=left;verticalAlign=middle;spacingLeft=4;spacingRight=4;overflow=hidden;points=[[0,0.5],[1,0.5]];portConstraint=eastwest;rotatable=0;whiteSpace=wrap;html=1;labelBorderColor=none;" parent="46" vertex="1"><mxGeometry y="60" width="140" height="30" as="geometry"/></mxCell><mxCell id="49" value="d_runner" style="text;strokeColor=none;fillColor=none;align=left;verticalAlign=middle;spacingLeft=4;spacingRight=4;overflow=hidden;points=[[0,0.5],[1,0.5]];portConstraint=eastwest;rotatable=0;whiteSpace=wrap;html=1;labelBorderColor=none;" parent="46" vertex="1"><mxGeometry y="90" width="140" height="30" as="geometry"/></mxCell><mxCell id="128" value="tot_global_mem_MB" style="text;strokeColor=none;fillColor=none;align=left;verticalAlign=middle;spacingLeft=4;spacingRight=4;overflow=hidden;points=[[0,0.5],[1,0.5]];portConstraint=eastwest;rotatable=0;whiteSpace=wrap;html=1;labelBorderColor=none;" parent="46" vertex="1"><mxGeometry y="120" width="140" height="30" as="geometry"/></mxCell><mxCell id="127" value="tot_global_mem_bytes" style="text;strokeColor=none;fillColor=none;align=left;verticalAlign=middle;spacingLeft=4;spacingRight=4;overflow=hidden;points=[[0,0.5],[1,0.5]];portConstraint=eastwest;rotatable=0;whiteSpace=wrap;html=1;labelBorderColor=none;" parent="46" vertex="1"><mxGeometry y="150" width="140" height="30" as="geometry"/></mxCell><mxCell id="126" value="nMultiProc" style="text;strokeColor=none;fillColor=none;align=left;verticalAlign=middle;spacingLeft=4;spacingRight=4;overflow=hidden;points=[[0,0.5],[1,0.5]];portConstraint=eastwest;rotatable=0;whiteSpace=wrap;html=1;labelBorderColor=none;" parent="46" vertex="1"><mxGeometry y="180" width="140" height="30" as="geometry"/></mxCell><mxCell id="50" value="Devices" style="swimlane;fontStyle=0;childLayout=stackLayout;horizontal=1;startSize=30;horizontalStack=0;resizeParent=1;resizeParentMax=0;resizeLast=0;collapsible=1;marginBottom=0;whiteSpace=wrap;html=1;labelBorderColor=none;fillColor=none;" parent="1" vertex="1"><mxGeometry x="910" y="480" width="140" height="120" as="geometry"/></mxCell><mxCell id="51" value="nDev" style="text;strokeColor=none;fillColor=none;align=left;verticalAlign=middle;spacingLeft=4;spacingRight=4;overflow=hidden;points=[[0,0.5],[1,0.5]];portConstraint=eastwest;rotatable=0;whiteSpace=wrap;html=1;labelBorderColor=none;" parent="50" vertex="1"><mxGeometry y="30" width="140" height="30" as="geometry"/></mxCell><mxCell id="52" value="max_perf_dev" style="text;strokeColor=none;fillColor=none;align=left;verticalAlign=middle;spacingLeft=4;spacingRight=4;overflow=hidden;points=[[0,0.5],[1,0.5]];portConstraint=eastwest;rotatable=0;whiteSpace=wrap;html=1;labelBorderColor=none;" parent="50" vertex="1"><mxGeometry y="60" width="140" height="30" as="geometry"/></mxCell><mxCell id="53" value="*ncuda_cores" style="text;strokeColor=none;fillColor=none;align=left;verticalAlign=middle;spacingLeft=4;spacingRight=4;overflow=hidden;points=[[0,0.5],[1,0.5]];portConstraint=eastwest;rotatable=0;whiteSpace=wrap;html=1;labelBorderColor=none;" parent="50" vertex="1"><mxGeometry y="90" width="140" height="30" as="geometry"/></mxCell><mxCell id="54" value="SystemDetails" style="swimlane;fontStyle=0;childLayout=stackLayout;horizontal=1;startSize=30;horizontalStack=0;resizeParent=1;resizeParentMax=0;resizeLast=0;collapsible=1;marginBottom=0;whiteSpace=wrap;html=1;labelBorderColor=none;fillColor=none;" parent="1" vertex="1"><mxGeometry x="910" y="60" width="140" height="120" as="geometry"/></mxCell><mxCell id="55" value="Linux" style="text;strokeColor=none;fillColor=none;align=left;verticalAlign=middle;spacingLeft=4;spacingRight=4;overflow=hidden;points=[[0,0.5],[1,0.5]];portConstraint=eastwest;rotatable=0;whiteSpace=wrap;html=1;labelBorderColor=none;" parent="54" vertex="1"><mxGeometry y="30" width="140" height="30" as="geometry"/></mxCell><mxCell id="56" value="Windows" style="text;strokeColor=none;fillColor=none;align=left;verticalAlign=middle;spacingLeft=4;spacingRight=4;overflow=hidden;points=[[0,0.5],[1,0.5]];portConstraint=eastwest;rotatable=0;whiteSpace=wrap;html=1;labelBorderColor=none;" parent="54" vertex="1"><mxGeometry y="60" width="140" height="30" as="geometry"/></mxCell><mxCell id="57" value="MacOSX" style="text;strokeColor=none;fillColor=none;align=left;verticalAlign=middle;spacingLeft=4;spacingRight=4;overflow=hidden;points=[[0,0.5],[1,0.5]];portConstraint=eastwest;rotatable=0;whiteSpace=wrap;html=1;labelBorderColor=none;" parent="54" vertex="1"><mxGeometry y="90" width="140" height="30" as="geometry"/></mxCell><mxCell id="58" value="Debug" style="swimlane;fontStyle=0;childLayout=stackLayout;horizontal=1;startSize=30;horizontalStack=0;resizeParent=1;resizeParentMax=0;resizeLast=0;collapsible=1;marginBottom=0;whiteSpace=wrap;html=1;labelBorderColor=none;fillColor=none;" parent="1" vertex="1"><mxGeometry x="260" y="-120" width="140" height="180" as="geometry"><mxRectangle x="260" y="-120" width="80" height="30" as="alternateBounds"/></mxGeometry></mxCell><mxCell id="59" value="debug_i" style="text;strokeColor=none;fillColor=none;align=left;verticalAlign=middle;spacingLeft=4;spacingRight=4;overflow=hidden;points=[[0,0.5],[1,0.5]];portConstraint=eastwest;rotatable=0;whiteSpace=wrap;html=1;labelBorderColor=none;" parent="58" vertex="1"><mxGeometry y="30" width="140" height="30" as="geometry"/></mxCell><mxCell id="60" value="debug_cpu_i" style="text;strokeColor=none;fillColor=none;align=left;verticalAlign=middle;spacingLeft=4;spacingRight=4;overflow=hidden;points=[[0,0.5],[1,0.5]];portConstraint=eastwest;rotatable=0;whiteSpace=wrap;html=1;labelBorderColor=none;" parent="58" vertex="1"><mxGeometry y="60" width="140" height="30" as="geometry"/></mxCell><mxCell id="61" value="debug_high_i" style="text;strokeColor=none;fillColor=none;align=left;verticalAlign=middle;spacingLeft=4;spacingRight=4;overflow=hidden;points=[[0,0.5],[1,0.5]];portConstraint=eastwest;rotatable=0;whiteSpace=wrap;html=1;labelBorderColor=none;" parent="58" vertex="1"><mxGeometry y="90" width="140" height="30" as="geometry"/></mxCell><mxCell id="75" value="debug_write_i" style="text;strokeColor=none;fillColor=none;align=left;verticalAlign=middle;spacingLeft=4;spacingRight=4;overflow=hidden;points=[[0,0.5],[1,0.5]];portConstraint=eastwest;rotatable=0;whiteSpace=wrap;html=1;labelBorderColor=none;" parent="58" vertex="1"><mxGeometry y="120" width="140" height="30" as="geometry"/></mxCell><mxCell id="77" value="debug_write_C_i" style="text;strokeColor=none;fillColor=none;align=left;verticalAlign=middle;spacingLeft=4;spacingRight=4;overflow=hidden;points=[[0,0.5],[1,0.5]];portConstraint=eastwest;rotatable=0;whiteSpace=wrap;html=1;labelBorderColor=none;" parent="58" vertex="1"><mxGeometry y="150" width="140" height="30" as="geometry"/></mxCell><mxCell id="62" value="bench" style="swimlane;fontStyle=0;childLayout=stackLayout;horizontal=1;startSize=30;horizontalStack=0;resizeParent=1;resizeParentMax=0;resizeLast=0;collapsible=1;marginBottom=0;whiteSpace=wrap;html=1;labelBorderColor=none;fillColor=none;" parent="1" vertex="1"><mxGeometry x="135" y="40" width="85" height="90" as="geometry"/></mxCell><mxCell id="63" value="bench_i" style="text;strokeColor=none;fillColor=none;align=left;verticalAlign=middle;spacingLeft=4;spacingRight=4;overflow=hidden;points=[[0,0.5],[1,0.5]];portConstraint=eastwest;rotatable=0;whiteSpace=wrap;html=1;labelBorderColor=none;" parent="62" vertex="1"><mxGeometry y="30" width="85" height="30" as="geometry"/></mxCell><mxCell id="64" value="bench_write_i" style="text;strokeColor=none;fillColor=none;align=left;verticalAlign=middle;spacingLeft=4;spacingRight=4;overflow=hidden;points=[[0,0.5],[1,0.5]];portConstraint=eastwest;rotatable=0;whiteSpace=wrap;html=1;labelBorderColor=none;" parent="62" vertex="1"><mxGeometry y="60" width="85" height="30" as="geometry"/></mxCell><mxCell id="68" value="" style="edgeStyle=elbowEdgeStyle;elbow=horizontal;endArrow=classic;html=1;rounded=1;entryX=0;entryY=0.5;entryDx=0;entryDy=0;exitX=0.5;exitY=0;exitDx=0;exitDy=0;" parent="1" source="9" target="55" edge="1"><mxGeometry width="50" height="50" relative="1" as="geometry"><mxPoint x="530" y="430" as="sourcePoint"/><mxPoint x="580" y="380" as="targetPoint"/><Array as="points"><mxPoint x="780" y="140"/></Array></mxGeometry></mxCell><mxCell id="69" value="" style="edgeStyle=elbowEdgeStyle;elbow=horizontal;endArrow=classic;html=1;rounded=1;entryX=0;entryY=0.25;entryDx=0;entryDy=0;exitX=1;exitY=0.5;exitDx=0;exitDy=0;" parent="1" source="8" target="46" edge="1"><mxGeometry width="50" height="50" relative="1" as="geometry"><mxPoint x="870" y="340" as="sourcePoint"/><mxPoint x="580" y="380" as="targetPoint"/></mxGeometry></mxCell><mxCell id="70" value="" style="edgeStyle=elbowEdgeStyle;elbow=horizontal;endArrow=classic;html=1;rounded=1;entryX=0;entryY=0.25;entryDx=0;entryDy=0;exitX=1;exitY=0.75;exitDx=0;exitDy=0;" parent="1" source="8" target="50" edge="1"><mxGeometry width="50" height="50" relative="1" as="geometry"><mxPoint x="530" y="430" as="sourcePoint"/><mxPoint x="580" y="380" as="targetPoint"/></mxGeometry></mxCell><mxCell id="78" value="" style="edgeStyle=elbowEdgeStyle;elbow=horizontal;endArrow=classic;html=1;rounded=1;exitX=0;exitY=0.5;exitDx=0;exitDy=0;" parent="1" source="6" target="62" edge="1"><mxGeometry width="50" height="50" relative="1" as="geometry"><mxPoint x="450" y="50" as="sourcePoint"/><mxPoint x="500" as="targetPoint"/><Array as="points"><mxPoint x="280" y="100"/></Array></mxGeometry></mxCell><mxCell id="79" value="" style="edgeStyle=elbowEdgeStyle;elbow=horizontal;endArrow=classic;html=1;rounded=1;entryX=1;entryY=0.5;entryDx=0;entryDy=0;exitX=0.5;exitY=0;exitDx=0;exitDy=0;" parent="1" source="6" target="59" edge="1"><mxGeometry width="50" height="50" relative="1" as="geometry"><mxPoint x="450" y="50" as="sourcePoint"/><mxPoint x="500" as="targetPoint"/><Array as="points"><mxPoint x="460"/></Array></mxGeometry></mxCell><mxCell id="80" value="" style="edgeStyle=elbowEdgeStyle;elbow=horizontal;endArrow=classic;html=1;rounded=1;exitX=1;exitY=0.5;exitDx=0;exitDy=0;entryX=0.5;entryY=0;entryDx=0;entryDy=0;" parent="1" source="6" target="15" edge="1"><mxGeometry width="50" height="50" relative="1" as="geometry"><mxPoint x="620" y="130" as="sourcePoint"/><mxPoint x="670" y="80" as="targetPoint"/><Array as="points"><mxPoint x="600" y="170"/></Array></mxGeometry></mxCell><mxCell id="81" value="UnitTest" style="swimlane;fontStyle=0;childLayout=stackLayout;horizontal=1;startSize=30;horizontalStack=0;resizeParent=1;resizeParentMax=0;resizeLast=0;collapsible=1;marginBottom=0;whiteSpace=wrap;html=1;labelBorderColor=none;fillColor=none;" parent="1" vertex="1"><mxGeometry x="530" y="-120" width="140" height="60" as="geometry"><mxRectangle x="260" y="-120" width="80" height="30" as="alternateBounds"/></mxGeometry></mxCell><mxCell id="82" value="launch_unitTest" style="text;strokeColor=none;fillColor=none;align=left;verticalAlign=middle;spacingLeft=4;spacingRight=4;overflow=hidden;points=[[0,0.5],[1,0.5]];portConstraint=eastwest;rotatable=0;whiteSpace=wrap;html=1;labelBorderColor=none;" parent="81" vertex="1"><mxGeometry y="30" width="140" height="30" as="geometry"/></mxCell><mxCell id="88" value="" style="edgeStyle=elbowEdgeStyle;elbow=vertical;endArrow=classic;html=1;rounded=1;exitX=0.75;exitY=0;exitDx=0;exitDy=0;entryX=0;entryY=0.5;entryDx=0;entryDy=0;" parent="1" source="6" target="82" edge="1"><mxGeometry width="50" height="50" relative="1" as="geometry"><mxPoint x="700" y="290" as="sourcePoint"/><mxPoint x="750" y="240" as="targetPoint"/><Array as="points"><mxPoint x="500" y="-75"/></Array></mxGeometry></mxCell><mxCell id="91" value="" style="edgeStyle=elbowEdgeStyle;elbow=horizontal;endArrow=classic;html=1;rounded=1;entryX=0;entryY=0.25;entryDx=0;entryDy=0;exitX=1;exitY=0.25;exitDx=0;exitDy=0;" parent="1" source="6" target="54" edge="1"><mxGeometry width="50" height="50" relative="1" as="geometry"><mxPoint x="550" y="60" as="sourcePoint"/><mxPoint x="750" y="240" as="targetPoint"/></mxGeometry></mxCell><mxCell id="93" value="namespace_System_gpu" style="rounded=1;whiteSpace=wrap;html=1;labelBorderColor=none;fillColor=none;" parent="1" vertex="1"><mxGeometry x="520" y="280" width="160" height="40" as="geometry"/></mxCell><mxCell id="94" value="" style="edgeStyle=elbowEdgeStyle;elbow=horizontal;endArrow=classic;html=1;rounded=1;exitX=1;exitY=0.75;exitDx=0;exitDy=0;entryX=1;entryY=0.25;entryDx=0;entryDy=0;" parent="1" source="6" target="93" edge="1"><mxGeometry width="50" height="50" relative="1" as="geometry"><mxPoint x="530" y="110" as="sourcePoint"/><mxPoint x="650" y="260" as="targetPoint"/><Array as="points"><mxPoint x="700" y="200"/></Array></mxGeometry></mxCell><mxCell id="95" value="" style="endArrow=classic;startArrow=classic;html=1;rounded=0;entryX=0;entryY=0.5;entryDx=0;entryDy=0;exitX=1;exitY=0.5;exitDx=0;exitDy=0;" parent="1" source="5" target="93" edge="1"><mxGeometry width="50" height="50" relative="1" as="geometry"><mxPoint x="640" y="260" as="sourcePoint"/><mxPoint x="690" y="210" as="targetPoint"/></mxGeometry></mxCell><mxCell id="97" value="Linux" style="swimlane;fontStyle=0;childLayout=stackLayout;horizontal=1;startSize=30;horizontalStack=0;resizeParent=1;resizeParentMax=0;resizeLast=0;collapsible=1;marginBottom=0;whiteSpace=wrap;html=1;labelBorderColor=none;fillColor=none;" parent="1" vertex="1"><mxGeometry x="1120" y="-289" width="140" height="270" as="geometry"/></mxCell><mxCell id="98" value="n_phys_proc" style="text;strokeColor=none;fillColor=none;align=left;verticalAlign=middle;spacingLeft=4;spacingRight=4;overflow=hidden;points=[[0,0.5],[1,0.5]];portConstraint=eastwest;rotatable=0;whiteSpace=wrap;html=1;labelBorderColor=none;" parent="97" vertex="1"><mxGeometry y="30" width="140" height="30" as="geometry"/></mxCell><mxCell id="99" value="nCPUlogical" style="text;strokeColor=none;fillColor=none;align=left;verticalAlign=middle;spacingLeft=4;spacingRight=4;overflow=hidden;points=[[0,0.5],[1,0.5]];portConstraint=eastwest;rotatable=0;whiteSpace=wrap;html=1;labelBorderColor=none;" parent="97" vertex="1"><mxGeometry y="60" width="140" height="30" as="geometry"/></mxCell><mxCell id="100" value="hypert_hreads" style="text;strokeColor=none;fillColor=none;align=left;verticalAlign=middle;spacingLeft=4;spacingRight=4;overflow=hidden;points=[[0,0.5],[1,0.5]];portConstraint=eastwest;rotatable=0;whiteSpace=wrap;html=1;labelBorderColor=none;" parent="97" vertex="1"><mxGeometry y="90" width="140" height="30" as="geometry"/></mxCell><mxCell id="114" value="cpuFeatures" style="text;strokeColor=none;fillColor=none;align=left;verticalAlign=middle;spacingLeft=4;spacingRight=4;overflow=hidden;points=[[0,0.5],[1,0.5]];portConstraint=eastwest;rotatable=0;whiteSpace=wrap;html=1;labelBorderColor=none;" parent="97" vertex="1"><mxGeometry y="120" width="140" height="30" as="geometry"/></mxCell><mxCell id="113" value="*cpuVendor" style="text;strokeColor=none;fillColor=none;align=left;verticalAlign=middle;spacingLeft=4;spacingRight=4;overflow=hidden;points=[[0,0.5],[1,0.5]];portConstraint=eastwest;rotatable=0;whiteSpace=wrap;html=1;labelBorderColor=none;" parent="97" vertex="1"><mxGeometry y="150" width="140" height="30" as="geometry"/></mxCell><mxCell id="112" value="ProcessorArchitecture" style="text;strokeColor=none;fillColor=none;align=left;verticalAlign=middle;spacingLeft=4;spacingRight=4;overflow=hidden;points=[[0,0.5],[1,0.5]];portConstraint=eastwest;rotatable=0;whiteSpace=wrap;html=1;labelBorderColor=none;" parent="97" vertex="1"><mxGeometry y="180" width="140" height="30" as="geometry"/></mxCell><mxCell id="116" value="total_phys_mem" style="text;strokeColor=none;fillColor=none;align=left;verticalAlign=middle;spacingLeft=4;spacingRight=4;overflow=hidden;points=[[0,0.5],[1,0.5]];portConstraint=eastwest;rotatable=0;whiteSpace=wrap;html=1;labelBorderColor=none;" parent="97" vertex="1"><mxGeometry y="210" width="140" height="30" as="geometry"/></mxCell><mxCell id="115" value="avail_phys_mem" style="text;strokeColor=none;fillColor=none;align=left;verticalAlign=middle;spacingLeft=4;spacingRight=4;overflow=hidden;points=[[0,0.5],[1,0.5]];portConstraint=eastwest;rotatable=0;whiteSpace=wrap;html=1;labelBorderColor=none;" parent="97" vertex="1"><mxGeometry y="240" width="140" height="30" as="geometry"/></mxCell><mxCell id="101" value="Windows" style="swimlane;fontStyle=0;childLayout=stackLayout;horizontal=1;startSize=30;horizontalStack=0;resizeParent=1;resizeParentMax=0;resizeLast=0;collapsible=1;marginBottom=0;whiteSpace=wrap;html=1;labelBorderColor=none;fillColor=none;" parent="1" vertex="1"><mxGeometry x="1120" y="-10" width="140" height="270" as="geometry"/></mxCell><mxCell id="102" value="&lt;font style=&quot;font-size: 12px;&quot;&gt;MemoryLoad_pc&lt;/font&gt;" style="text;strokeColor=none;fillColor=none;align=left;verticalAlign=middle;spacingLeft=4;spacingRight=4;overflow=hidden;points=[[0,0.5],[1,0.5]];portConstraint=eastwest;rotatable=0;whiteSpace=wrap;html=1;labelBorderColor=none;" parent="101" vertex="1"><mxGeometry y="30" width="140" height="30" as="geometry"/></mxCell><mxCell id="103" value="&lt;font style=&quot;font-size: 12px;&quot;&gt;TotalPhys_kB&lt;/font&gt;" style="text;strokeColor=none;fillColor=none;align=left;verticalAlign=middle;spacingLeft=4;spacingRight=4;overflow=hidden;points=[[0,0.5],[1,0.5]];portConstraint=eastwest;rotatable=0;whiteSpace=wrap;html=1;labelBorderColor=none;" parent="101" vertex="1"><mxGeometry y="60" width="140" height="30" as="geometry"/></mxCell><mxCell id="104" value="&lt;font style=&quot;font-size: 12px;&quot;&gt;AvailPhys_kB&lt;/font&gt;" style="text;strokeColor=none;fillColor=none;align=left;verticalAlign=middle;spacingLeft=4;spacingRight=4;overflow=hidden;points=[[0,0.5],[1,0.5]];portConstraint=eastwest;rotatable=0;whiteSpace=wrap;html=1;labelBorderColor=none;" parent="101" vertex="1"><mxGeometry y="90" width="140" height="30" as="geometry"/></mxCell><mxCell id="119" value="&lt;div style=&quot;background-color: rgb(40, 44, 52);&quot;&gt;&lt;pre style=&quot;&quot;&gt;&lt;font face=&quot;Helvetica&quot; style=&quot;font-size: 12px;&quot;&gt;TotalPageFile_kB&lt;/font&gt;&lt;/pre&gt;&lt;/div&gt;" style="text;strokeColor=none;fillColor=none;align=left;verticalAlign=middle;spacingLeft=4;spacingRight=4;overflow=hidden;points=[[0,0.5],[1,0.5]];portConstraint=eastwest;rotatable=0;whiteSpace=wrap;html=1;labelBorderColor=none;" parent="101" vertex="1"><mxGeometry y="120" width="140" height="30" as="geometry"/></mxCell><mxCell id="118" value="&lt;pre style=&quot;&quot;&gt;&lt;font face=&quot;Helvetica&quot; style=&quot;font-size: 12px;&quot;&gt;AvailPageFile_kB&lt;/font&gt;&lt;/pre&gt;" style="text;strokeColor=none;fillColor=none;align=left;verticalAlign=middle;spacingLeft=4;spacingRight=4;overflow=hidden;points=[[0,0.5],[1,0.5]];portConstraint=eastwest;rotatable=0;whiteSpace=wrap;html=1;labelBorderColor=none;" parent="101" vertex="1"><mxGeometry y="150" width="140" height="30" as="geometry"/></mxCell><mxCell id="117" value="&lt;pre style=&quot;&quot;&gt;&lt;font face=&quot;Helvetica&quot; style=&quot;font-size: 12px;&quot;&gt;TotalVirtual_kB&lt;/font&gt;&lt;/pre&gt;" style="text;strokeColor=none;fillColor=none;align=left;verticalAlign=middle;spacingLeft=4;spacingRight=4;overflow=hidden;points=[[0,0.5],[1,0.5]];portConstraint=eastwest;rotatable=0;whiteSpace=wrap;html=1;labelBorderColor=none;" parent="101" vertex="1"><mxGeometry y="180" width="140" height="30" as="geometry"/></mxCell><mxCell id="120" value="&lt;pre style=&quot;&quot;&gt;&lt;font face=&quot;Helvetica&quot; style=&quot;font-size: 12px;&quot;&gt;AvailVirtual_kB&lt;/font&gt;&lt;/pre&gt;" style="text;strokeColor=none;fillColor=none;align=left;verticalAlign=middle;spacingLeft=4;spacingRight=4;overflow=hidden;points=[[0,0.5],[1,0.5]];portConstraint=eastwest;rotatable=0;whiteSpace=wrap;html=1;labelBorderColor=none;" parent="101" vertex="1"><mxGeometry y="210" width="140" height="30" as="geometry"/></mxCell><mxCell id="121" value="&lt;pre style=&quot;&quot;&gt;&lt;font face=&quot;Helvetica&quot; style=&quot;font-size: 12px;&quot;&gt;AvailExtendedVirtual_kB&lt;/font&gt;&lt;/pre&gt;" style="text;strokeColor=none;fillColor=none;align=left;verticalAlign=middle;spacingLeft=4;spacingRight=4;overflow=hidden;points=[[0,0.5],[1,0.5]];portConstraint=eastwest;rotatable=0;whiteSpace=wrap;html=1;labelBorderColor=none;" parent="101" vertex="1"><mxGeometry y="240" width="140" height="30" as="geometry"/></mxCell><mxCell id="105" value="MacOSX" style="swimlane;fontStyle=0;childLayout=stackLayout;horizontal=1;startSize=30;horizontalStack=0;resizeParent=1;resizeParentMax=0;resizeLast=0;collapsible=1;marginBottom=0;whiteSpace=wrap;html=1;labelBorderColor=none;fillColor=none;" parent="1" vertex="1"><mxGeometry x="1120" y="292" width="140" height="90" as="geometry"/></mxCell><mxCell id="106" value="mem_Sizes" style="text;strokeColor=none;fillColor=none;align=left;verticalAlign=middle;spacingLeft=4;spacingRight=4;overflow=hidden;points=[[0,0.5],[1,0.5]];portConstraint=eastwest;rotatable=0;whiteSpace=wrap;html=1;labelBorderColor=none;" parent="105" vertex="1"><mxGeometry y="30" width="140" height="30" as="geometry"/></mxCell><mxCell id="122" value="mem_User" style="text;strokeColor=none;fillColor=none;align=left;verticalAlign=middle;spacingLeft=4;spacingRight=4;overflow=hidden;points=[[0,0.5],[1,0.5]];portConstraint=eastwest;rotatable=0;whiteSpace=wrap;html=1;labelBorderColor=none;" parent="105" vertex="1"><mxGeometry y="60" width="140" height="30" as="geometry"/></mxCell><mxCell id="109" value="" style="edgeStyle=elbowEdgeStyle;elbow=horizontal;endArrow=classic;html=1;rounded=1;entryX=-0.021;entryY=0.133;entryDx=0;entryDy=0;entryPerimeter=0;exitX=1;exitY=0.5;exitDx=0;exitDy=0;" parent="1" source="57" target="105" edge="1"><mxGeometry width="50" height="50" relative="1" as="geometry"><mxPoint x="720" y="230" as="sourcePoint"/><mxPoint x="770" y="180" as="targetPoint"/><Array as="points"><mxPoint x="1090" y="230"/></Array></mxGeometry></mxCell><mxCell id="110" value="" style="edgeStyle=elbowEdgeStyle;elbow=horizontal;endArrow=classic;html=1;rounded=1;entryX=0.009;entryY=0.129;entryDx=0;entryDy=0;entryPerimeter=0;exitX=1;exitY=0.5;exitDx=0;exitDy=0;" parent="1" source="56" target="101" edge="1"><mxGeometry width="50" height="50" relative="1" as="geometry"><mxPoint x="880" y="220" as="sourcePoint"/><mxPoint x="930" y="170" as="targetPoint"/><Array as="points"><mxPoint x="1090" y="80"/></Array></mxGeometry></mxCell><mxCell id="111" value="" style="edgeStyle=elbowEdgeStyle;elbow=horizontal;endArrow=classic;html=1;rounded=1;entryX=0.017;entryY=0.126;entryDx=0;entryDy=0;entryPerimeter=0;exitX=1;exitY=0.5;exitDx=0;exitDy=0;" parent="1" source="55" target="97" edge="1"><mxGeometry width="50" height="50" relative="1" as="geometry"><mxPoint x="880" y="150" as="sourcePoint"/><mxPoint x="930" y="100" as="targetPoint"/><Array as="points"><mxPoint x="1070" y="-20"/></Array></mxGeometry></mxCell><mxCell id="123" value="" style="edgeStyle=elbowEdgeStyle;elbow=horizontal;endArrow=classic;html=1;rounded=1;fontFamily=Helvetica;fontSize=12;fontColor=#F0F0F0;exitX=1.004;exitY=0.04;exitDx=0;exitDy=0;entryX=1.014;entryY=0.07;entryDx=0;entryDy=0;entryPerimeter=0;exitPerimeter=0;dashed=1;startArrow=classic;startFill=1;" parent="1" source="101" target="97" edge="1"><mxGeometry width="50" height="50" relative="1" as="geometry"><mxPoint x="750" y="130" as="sourcePoint"/><mxPoint x="800" y="80" as="targetPoint"/><Array as="points"><mxPoint x="1290" y="-130"/></Array></mxGeometry></mxCell><mxCell id="124" value="" style="edgeStyle=elbowEdgeStyle;elbow=horizontal;endArrow=classic;html=1;rounded=1;fontFamily=Helvetica;fontSize=12;fontColor=#F0F0F0;entryX=1.021;entryY=0.192;entryDx=0;entryDy=0;entryPerimeter=0;exitX=1.001;exitY=0.071;exitDx=0;exitDy=0;exitPerimeter=0;dashed=1;startArrow=classic;startFill=1;" parent="1" source="101" target="105" edge="1"><mxGeometry width="50" height="50" relative="1" as="geometry"><mxPoint x="1030" y="100" as="sourcePoint"/><mxPoint x="1080" y="50" as="targetPoint"/><Array as="points"><mxPoint x="1290" y="160"/></Array></mxGeometry></mxCell><mxCell id="129" value="namespace_deepL" style="rounded=1;whiteSpace=wrap;html=1;labelBorderColor=none;fillColor=none;" parent="1" vertex="1"><mxGeometry x="720" y="-200" width="160" height="40" as="geometry"/></mxCell><mxCell id="130" value="namespace_DataManageLDMaP" style="rounded=1;whiteSpace=wrap;html=1;labelBorderColor=none;fillColor=none;" parent="1" vertex="1"><mxGeometry x="720" y="-151" width="200" height="40" as="geometry"/></mxCell><mxCell id="131" value="namespace_Quantum_Computing" style="rounded=1;whiteSpace=wrap;html=1;labelBorderColor=none;fillColor=none;" parent="1" vertex="1"><mxGeometry x="720" y="-50" width="200" height="40" as="geometry"/></mxCell><mxCell id="132" value="namespace_Cryo-EM" style="rounded=1;whiteSpace=wrap;html=1;labelBorderColor=none;fillColor=none;" parent="1" vertex="1"><mxGeometry x="720" y="-101" width="160" height="40" as="geometry"/></mxCell><mxCell id="133" value="Network" style="rounded=0;whiteSpace=wrap;html=1;fillColor=#6a00ff;fontColor=#ffffff;strokeColor=#3700CC;" parent="1" vertex="1"><mxGeometry x="720" y="420" width="120" height="40" as="geometry"/></mxCell><mxCell id="134" value="" style="edgeStyle=elbowEdgeStyle;elbow=horizontal;endArrow=classic;html=1;rounded=1;entryX=0;entryY=0.5;entryDx=0;entryDy=0;exitX=1;exitY=0.5;exitDx=0;exitDy=0;startArrow=classic;startFill=1;" parent="1" source="18" target="133" edge="1"><mxGeometry width="50" height="50" relative="1" as="geometry"><mxPoint x="690" y="370" as="sourcePoint"/><mxPoint x="740" y="320" as="targetPoint"/></mxGeometry></mxCell><mxCell id="135" value="" style="edgeStyle=elbowEdgeStyle;elbow=horizontal;endArrow=classic;html=1;rounded=1;entryX=0;entryY=0.75;entryDx=0;entryDy=0;exitX=0.75;exitY=1;exitDx=0;exitDy=0;" parent="1" source="6" target="18" edge="1"><mxGeometry width="50" height="50" relative="1" as="geometry"><mxPoint x="690" y="370" as="sourcePoint"/><mxPoint x="740" y="320" as="targetPoint"/><Array as="points"><mxPoint x="490" y="250"/></Array></mxGeometry></mxCell><mxCell id="138" value="Socket" style="swimlane;fontStyle=0;childLayout=stackLayout;horizontal=1;startSize=30;horizontalStack=0;resizeParent=1;resizeParentMax=0;resizeLast=0;collapsible=1;marginBottom=0;whiteSpace=wrap;html=1;labelBorderColor=none;fillColor=none;" parent="1" vertex="1"><mxGeometry x="1120" y="400" width="140" height="90" as="geometry"/></mxCell><mxCell id="139" value="mem_Sizes" style="text;strokeColor=none;fillColor=none;align=left;verticalAlign=middle;spacingLeft=4;spacingRight=4;overflow=hidden;points=[[0,0.5],[1,0.5]];portConstraint=eastwest;rotatable=0;whiteSpace=wrap;html=1;labelBorderColor=none;" parent="138" vertex="1"><mxGeometry y="30" width="140" height="30" as="geometry"/></mxCell><mxCell id="140" value="mem_User" style="text;strokeColor=none;fillColor=none;align=left;verticalAlign=middle;spacingLeft=4;spacingRight=4;overflow=hidden;points=[[0,0.5],[1,0.5]];portConstraint=eastwest;rotatable=0;whiteSpace=wrap;html=1;labelBorderColor=none;" parent="138" vertex="1"><mxGeometry y="60" width="140" height="30" as="geometry"/></mxCell><mxCell id="141" value="Network" style="swimlane;fontStyle=0;childLayout=stackLayout;horizontal=1;startSize=30;horizontalStack=0;resizeParent=1;resizeParentMax=0;resizeLast=0;collapsible=1;marginBottom=0;whiteSpace=wrap;html=1;labelBorderColor=none;fillColor=none;" parent="1" vertex="1"><mxGeometry x="1120" y="520" width="140" height="90" as="geometry"/></mxCell><mxCell id="142" value="mem_Sizes" style="text;strokeColor=none;fillColor=none;align=left;verticalAlign=middle;spacingLeft=4;spacingRight=4;overflow=hidden;points=[[0,0.5],[1,0.5]];portConstraint=eastwest;rotatable=0;whiteSpace=wrap;html=1;labelBorderColor=none;" parent="141" vertex="1"><mxGeometry y="30" width="140" height="30" as="geometry"/></mxCell><mxCell id="143" value="mem_User" style="text;strokeColor=none;fillColor=none;align=left;verticalAlign=middle;spacingLeft=4;spacingRight=4;overflow=hidden;points=[[0,0.5],[1,0.5]];portConstraint=eastwest;rotatable=0;whiteSpace=wrap;html=1;labelBorderColor=none;" parent="141" vertex="1"><mxGeometry y="60" width="140" height="30" as="geometry"/></mxCell><mxCell id="144" value="" style="edgeStyle=elbowEdgeStyle;elbow=horizontal;endArrow=classic;html=1;rounded=1;entryX=0;entryY=0.25;entryDx=0;entryDy=0;exitX=1;exitY=0.5;exitDx=0;exitDy=0;" parent="1" source="2" target="138" edge="1"><mxGeometry width="50" height="50" relative="1" as="geometry"><mxPoint x="480" y="430" as="sourcePoint"/><mxPoint x="530" y="380" as="targetPoint"/><Array as="points"><mxPoint x="890" y="420"/><mxPoint x="890" y="430"/></Array></mxGeometry></mxCell><mxCell id="145" value="" style="edgeStyle=elbowEdgeStyle;elbow=horizontal;endArrow=classic;html=1;rounded=1;entryX=0;entryY=0.25;entryDx=0;entryDy=0;exitX=1;exitY=0.5;exitDx=0;exitDy=0;" parent="1" source="133" target="141" edge="1"><mxGeometry width="50" height="50" relative="1" as="geometry"><mxPoint x="870" y="480" as="sourcePoint"/><mxPoint x="920" y="430" as="targetPoint"/><Array as="points"><mxPoint x="1090" y="490"/></Array></mxGeometry></mxCell><mxCell id="146" value="" style="edgeStyle=elbowEdgeStyle;elbow=horizontal;endArrow=classic;html=1;rounded=1;fontFamily=Helvetica;fontSize=12;fontColor=#F0F0F0;entryX=1;entryY=0.25;entryDx=0;entryDy=0;exitX=1;exitY=0.25;exitDx=0;exitDy=0;dashed=1;startArrow=classic;startFill=1;" parent="1" source="138" target="141" edge="1"><mxGeometry width="50" height="50" relative="1" as="geometry"><mxPoint x="1329.9999999999998" y="260.0000000000001" as="sourcePoint"/><mxPoint x="1332.8" y="560.11" as="targetPoint"/><Array as="points"><mxPoint x="1290" y="480"/></Array></mxGeometry></mxCell><mxCell id="147" style="edgeStyle=orthogonalEdgeStyle;rounded=1;orthogonalLoop=1;jettySize=auto;html=1;exitX=0;exitY=0.75;exitDx=0;exitDy=0;entryX=0.5;entryY=0;entryDx=0;entryDy=0;startArrow=none;startFill=0;" parent="1" source="6" target="7" edge="1"><mxGeometry relative="1" as="geometry"><Array as="points"><mxPoint x="340" y="110"/></Array></mxGeometry></mxCell><mxCell id="148" style="edgeStyle=orthogonalEdgeStyle;rounded=1;orthogonalLoop=1;jettySize=auto;html=1;exitX=0.5;exitY=1;exitDx=0;exitDy=0;entryX=0.75;entryY=0;entryDx=0;entryDy=0;startArrow=none;startFill=0;" parent="1" source="6" target="22" edge="1"><mxGeometry relative="1" as="geometry"><mxPoint x="410" y="120" as="sourcePoint"/><mxPoint x="349.9999999999999" y="170" as="targetPoint"/><Array as="points"><mxPoint x="460" y="410"/><mxPoint x="492" y="410"/></Array></mxGeometry></mxCell><mxCell id="149" style="edgeStyle=orthogonalEdgeStyle;rounded=1;orthogonalLoop=1;jettySize=auto;html=1;exitX=0.251;exitY=1.077;exitDx=0;exitDy=0;startArrow=none;startFill=0;exitPerimeter=0;entryX=0.75;entryY=0;entryDx=0;entryDy=0;" parent="1" source="6" target="5" edge="1"><mxGeometry relative="1" as="geometry"><mxPoint x="470" y="130" as="sourcePoint"/><mxPoint x="370" y="260" as="targetPoint"/><Array as="points"><mxPoint x="430" y="240"/><mxPoint x="365" y="240"/></Array></mxGeometry></mxCell><mxCell id="151" value="Adapters" style="rounded=0;whiteSpace=wrap;html=1;fillColor=#6a00ff;fontColor=#ffffff;strokeColor=#3700CC;" parent="1" vertex="1"><mxGeometry x="720" y="490" width="120" height="40" as="geometry"/></mxCell><mxCell id="152" value="" style="edgeStyle=elbowEdgeStyle;elbow=horizontal;endArrow=classic;html=1;rounded=1;entryX=0;entryY=0.5;entryDx=0;entryDy=0;exitX=1;exitY=0.75;exitDx=0;exitDy=0;startArrow=classic;startFill=1;" parent="1" source="18" target="151" edge="1"><mxGeometry width="50" height="50" relative="1" as="geometry"><mxPoint x="690" y="390" as="sourcePoint"/><mxPoint x="730" y="450" as="targetPoint"/><Array as="points"><mxPoint x="690" y="450"/></Array></mxGeometry></mxCell><mxCell id="153" value="adapters" style="swimlane;fontStyle=0;childLayout=stackLayout;horizontal=1;startSize=30;horizontalStack=0;resizeParent=1;resizeParentMax=0;resizeLast=0;collapsible=1;marginBottom=0;whiteSpace=wrap;html=1;labelBorderColor=none;fillColor=none;" vertex="1" parent="1"><mxGeometry x="910" y="640" width="140" height="90" as="geometry"/></mxCell><mxCell id="154" value="mem_Sizes" style="text;strokeColor=none;fillColor=none;align=left;verticalAlign=middle;spacingLeft=4;spacingRight=4;overflow=hidden;points=[[0,0.5],[1,0.5]];portConstraint=eastwest;rotatable=0;whiteSpace=wrap;html=1;labelBorderColor=none;" vertex="1" parent="153"><mxGeometry y="30" width="140" height="30" as="geometry"/></mxCell><mxCell id="155" value="mem_User" style="text;strokeColor=none;fillColor=none;align=left;verticalAlign=middle;spacingLeft=4;spacingRight=4;overflow=hidden;points=[[0,0.5],[1,0.5]];portConstraint=eastwest;rotatable=0;whiteSpace=wrap;html=1;labelBorderColor=none;" vertex="1" parent="153"><mxGeometry y="60" width="140" height="30" as="geometry"/></mxCell><mxCell id="156" value="machine" style="swimlane;fontStyle=0;childLayout=stackLayout;horizontal=1;startSize=30;horizontalStack=0;resizeParent=1;resizeParentMax=0;resizeLast=0;collapsible=1;marginBottom=0;whiteSpace=wrap;html=1;labelBorderColor=none;fillColor=none;" vertex="1" parent="1"><mxGeometry x="1120" y="640" width="140" height="90" as="geometry"/></mxCell><mxCell id="157" value="mem_Sizes" style="text;strokeColor=none;fillColor=none;align=left;verticalAlign=middle;spacingLeft=4;spacingRight=4;overflow=hidden;points=[[0,0.5],[1,0.5]];portConstraint=eastwest;rotatable=0;whiteSpace=wrap;html=1;labelBorderColor=none;" vertex="1" parent="156"><mxGeometry y="30" width="140" height="30" as="geometry"/></mxCell><mxCell id="158" value="mem_User" style="text;strokeColor=none;fillColor=none;align=left;verticalAlign=middle;spacingLeft=4;spacingRight=4;overflow=hidden;points=[[0,0.5],[1,0.5]];portConstraint=eastwest;rotatable=0;whiteSpace=wrap;html=1;labelBorderColor=none;" vertex="1" parent="156"><mxGeometry y="60" width="140" height="30" as="geometry"/></mxCell><mxCell id="159" value="IPAddresses" style="swimlane;fontStyle=0;childLayout=stackLayout;horizontal=1;startSize=30;horizontalStack=0;resizeParent=1;resizeParentMax=0;resizeLast=0;collapsible=1;marginBottom=0;whiteSpace=wrap;html=1;labelBorderColor=none;fillColor=none;" vertex="1" parent="1"><mxGeometry x="710" y="640" width="140" height="90" as="geometry"/></mxCell><mxCell id="160" value="mem_Sizes" style="text;strokeColor=none;fillColor=none;align=left;verticalAlign=middle;spacingLeft=4;spacingRight=4;overflow=hidden;points=[[0,0.5],[1,0.5]];portConstraint=eastwest;rotatable=0;whiteSpace=wrap;html=1;labelBorderColor=none;" vertex="1" parent="159"><mxGeometry y="30" width="140" height="30" as="geometry"/></mxCell><mxCell id="161" value="mem_User" style="text;strokeColor=none;fillColor=none;align=left;verticalAlign=middle;spacingLeft=4;spacingRight=4;overflow=hidden;points=[[0,0.5],[1,0.5]];portConstraint=eastwest;rotatable=0;whiteSpace=wrap;html=1;labelBorderColor=none;" vertex="1" parent="159"><mxGeometry y="60" width="140" height="30" as="geometry"/></mxCell><mxCell id="162" value="" style="edgeStyle=elbowEdgeStyle;elbow=horizontal;endArrow=classic;html=1;rounded=1;fontFamily=Helvetica;fontSize=12;fontColor=#F0F0F0;entryX=1;entryY=0.25;entryDx=0;entryDy=0;exitX=1;exitY=0.25;exitDx=0;exitDy=0;dashed=1;startArrow=classic;startFill=1;" edge="1" parent="1" source="141" target="156"><mxGeometry width="50" height="50" relative="1" as="geometry"><mxPoint x="1270" y="432.5" as="sourcePoint"/><mxPoint x="1270" y="552.5" as="targetPoint"/><Array as="points"><mxPoint x="1300" y="590"/></Array></mxGeometry></mxCell><mxCell id="163" value="" style="edgeStyle=elbowEdgeStyle;elbow=horizontal;endArrow=classic;html=1;rounded=1;entryX=0;entryY=0.25;entryDx=0;entryDy=0;exitX=1;exitY=0.5;exitDx=0;exitDy=0;" edge="1" parent="1" source="133" target="156"><mxGeometry width="50" height="50" relative="1" as="geometry"><mxPoint x="850" y="450" as="sourcePoint"/><mxPoint x="1130" y="552.5" as="targetPoint"/><Array as="points"><mxPoint x="1090" y="550"/></Array></mxGeometry></mxCell><mxCell id="164" value="" style="edgeStyle=elbowEdgeStyle;elbow=horizontal;endArrow=classic;html=1;rounded=1;entryX=0.5;entryY=0;entryDx=0;entryDy=0;exitX=0.5;exitY=1;exitDx=0;exitDy=0;" edge="1" parent="1" source="151" target="159"><mxGeometry width="50" height="50" relative="1" as="geometry"><mxPoint x="860" y="460" as="sourcePoint"/><mxPoint x="1140" y="562.5" as="targetPoint"/><Array as="points"/></mxGeometry></mxCell><mxCell id="165" value="" style="edgeStyle=elbowEdgeStyle;elbow=horizontal;endArrow=classic;html=1;rounded=1;entryX=0;entryY=0.25;entryDx=0;entryDy=0;exitX=1;exitY=0.5;exitDx=0;exitDy=0;" edge="1" parent="1" source="151" target="153"><mxGeometry width="50" height="50" relative="1" as="geometry"><mxPoint x="870" y="470" as="sourcePoint"/><mxPoint x="1150" y="572.5" as="targetPoint"/><Array as="points"><mxPoint x="870" y="630"/><mxPoint x="870" y="600"/></Array></mxGeometry></mxCell></root></mxGraphModel></diagram></mxfile>